<?xml version="1.0" encoding="UTF-8" standalone="no"?>
<svg
   width="24"
   height="24"
   fill="none"
   viewBox="0 0 24 24"
   version="1.1"
   id="svg1"
   xmlns:xlink="http://www.w3.org/1999/xlink"
   xmlns="http://www.w3.org/2000/svg"
   xmlns:svg="http://www.w3.org/2000/svg">
  <defs
     id="defs1">
    <linearGradient
       id="linearGradient1">
      <stop
         style="stop-color:#2fa77d;stop-opacity:1;"
         offset="0"
         id="stop1" />
      <stop
         style="stop-color:#3e649c;stop-opacity:1;"
         offset="1"
         id="stop2" />
    </linearGradient>
    <linearGradient
       xlink:href="#linearGradient1"
       id="linearGradient2"
       x1="12.0015"
       y1="2.6376619"
       x2="12.0015"
       y2="21.361797"
       gradientUnits="userSpaceOnUse" />
  </defs>
  <path
     d="M12.012 2.25c.734.008 1.465.093 2.182.253a.75.75 0 0 1 .582.649l.17 1.527a1.384 1.384 0 0 0 1.927 1.116l1.401-.615a.75.75 0 0 1 .85.174 9.792 9.792 0 0 1 2.204 3.792.75.75 0 0 1-.271.825l-1.242.916a1.381 1.381 0 0 0 0 2.226l1.243.915a.75.75 0 0 1 .272.826 9.797 9.797 0 0 1-2.204 3.792.75.75 0 0 1-.848.175l-1.407-.617a1.38 1.38 0 0 0-1.926 1.114l-.169 1.526a.75.75 0 0 1-.572.647 9.518 9.518 0 0 1-4.406 0 .75.75 0 0 1-.572-.647l-.168-1.524a1.382 1.382 0 0 0-1.926-1.11l-1.406.616a.75.75 0 0 1-.849-.175 9.798 9.798 0 0 1-2.204-3.796.75.75 0 0 1 .272-.826l1.243-.916a1.38 1.38 0 0 0 0-2.226l-1.243-.914a.75.75 0 0 1-.271-.826 9.793 9.793 0 0 1 2.204-3.792.75.75 0 0 1 .85-.174l1.4.615a1.387 1.387 0 0 0 1.93-1.118l.17-1.526a.75.75 0 0 1 .583-.65c.717-.159 1.45-.243 2.201-.252ZM12 9a3 3 0 1 0 0 6 3 3 0 0 0 0-6Z"
     fill="#212121"
     id="path1"
     style="fill:url(#linearGradient2)" />
</svg>
